<svg xmlns="http://www.w3.org/2000/svg" x="0px" y="0px"
width="50" height="50"
viewBox="0 0 224 224"
style=" fill:#000000;"><g fill="none" fill-rule="nonzero" stroke="none" stroke-width="1" stroke-linecap="butt" stroke-linejoin="miter" stroke-miterlimit="10" stroke-dasharray="" stroke-dashoffset="0" font-family="none" font-weight="none" font-size="none" text-anchor="none" style="mix-blend-mode: normal"><path d="M0,224v-224h224v224z" fill="none"></path><g fill="#ffffff"><g id="surface1"><path d="M13.44,31.36c-7.3675,0 -13.44,6.0725 -13.44,13.44v143.36c0,7.3675 6.0725,13.44 13.44,13.44h31.36v-8.96h8.96v8.96h116.48v-8.96h8.96v8.96h31.36c7.3675,0 13.44,-6.0725 13.44,-13.44v-125.44c0,-7.3675 -6.0725,-13.44 -13.44,-13.44h-94.08v-4.48c0,-7.3675 -6.0725,-13.44 -13.44,-13.44zM13.44,40.32h89.6c2.52,0 4.48,1.96 4.48,4.48v13.44h103.04c2.52,0 4.48,1.96 4.48,4.48v125.44c0,2.52 -1.96,4.48 -4.48,4.48h-22.4v-8.96h-26.88v8.96h-98.56v-8.96h-26.88v8.96h-22.4c-2.52,0 -4.48,-1.96 -4.48,-4.48v-143.36c0,-2.52 1.96,-4.48 4.48,-4.48zM60.34,80.64c-15.05,0.28 -16.87,11.725 -13.58,24.92c-0.5775,0.3675 -1.505,1.68 -1.26,3.78c0.455,3.9025 1.96,4.8125 2.94,4.9c0.3675,3.64 2.6775,7.9975 3.92,8.68c0,2.59 0.105,4.5675 -0.14,7.42c-2.975,8.3125 -24.4125,5.95 -25.34,21.98h67.2c-0.9275,-16.03 -22.225,-13.6675 -25.2,-21.98c-0.245,-2.8525 -0.14,-4.83 -0.14,-7.42c1.2425,-0.6825 3.395,-5.04 3.78,-8.68c0.98,-0.0875 2.485,-0.9975 2.94,-4.9c0.245,-2.1 -0.6825,-3.2725 -1.26,-3.64c1.575,-4.9525 4.8125,-20.3875 -6.16,-21.98c-1.1375,-2.065 -3.9375,-3.08 -7.7,-3.08zM116.48,98.56v8.96h80.64v-8.96zM116.48,120.96v8.96h80.64v-8.96zM116.48,143.36v8.96h80.64v-8.96z"></path></g></g></g></svg>