<svg xmlns="http://www.w3.org/2000/svg" x="0px" y="0px"
width="50" height="50"
viewBox="0 0 224 224"
style=" fill:#000000;"><g fill="none" fill-rule="nonzero" stroke="none" stroke-width="1" stroke-linecap="butt" stroke-linejoin="miter" stroke-miterlimit="10" stroke-dasharray="" stroke-dashoffset="0" font-family="none" font-weight="none" font-size="none" text-anchor="none" style="mix-blend-mode: normal"><path d="M0,224v-224h224v224z" fill="none"></path><g fill="#ffffff"><path d="M112,8.96c-56.84522,0 -103.04,46.19478 -103.04,103.04c0,56.84522 46.19478,103.04 103.04,103.04c56.84522,0 103.04,-46.19478 103.04,-103.04c0,-56.84522 -46.19478,-103.04 -103.04,-103.04zM112,17.92c52.00086,0 94.08,42.07914 94.08,94.08c0,0.31974 -0.02308,0.63476 -0.02625,0.95375c-2.86547,-0.26449 -6.17628,-0.51572 -10.38625,-0.665c-5.95266,-0.21108 -13.45578,-0.14993 -21.9625,0.27125c0.31545,-2.19676 0.53656,-4.42455 0.5425,-6.71125c0.4338,-8.38934 -2.3834,-16.23771 -6.965,-23.17c1.10687,-3.82469 2.40533,-8.69057 2.73,-14.21c0.37005,-6.29117 -0.17302,-13.26724 -5.22375,-17.98125l-1.295,-1.2075h-1.7675c-12.02015,0 -20.24775,5.03198 -25.27875,9.02125c-7.26433,-2.81187 -15.43275,-4.54125 -24.4475,-4.54125c-9.06588,0 -17.31285,1.75354 -24.87625,4.55875c-5.02815,-3.99117 -13.26295,-9.03875 -25.29625,-9.03875h-1.75875l-1.295,1.19875c-4.91987,4.56845 -5.37315,11.35313 -5.06625,17.61375c0.27064,5.52065 1.49386,10.5411 2.58125,14.55125c-4.65904,7.06762 -7.455,15.11889 -7.455,23.0825c0,2.29209 0.21315,4.52687 0.525,6.72875c-8.08981,-0.37522 -15.30134,-0.44753 -21.02625,-0.245c-4.20988,0.14893 -7.52092,0.39799 -10.38625,0.665c-0.00267,-0.29272 -0.02625,-0.58164 -0.02625,-0.875c0,-52.00086 42.07914,-94.08 94.08,-94.08zM64.49625,58.82625c9.03877,0.8565 15.83909,4.89267 18.9875,7.69125l2.1,1.855l2.59,-1.05875c7.0849,-2.91731 14.98714,-4.59375 23.82625,-4.59375c8.83911,0 16.74352,1.68482 23.2925,4.55l2.625,1.155l2.14375,-1.9075c3.14949,-2.79954 9.96133,-6.83694 19.005,-7.69125c1.20242,1.99352 2.24729,4.82858 1.995,9.1175c-0.30195,5.13283 -1.67493,10.72352 -2.7125,14.04375l-0.67375,2.16125l1.33875,1.82875c4.43285,6.0448 6.69303,12.5867 6.30875,19.50375l-0.00875,0.1225v0.1225c0,11.17964 -4.02578,20.12743 -12.6,26.7575c-8.57402,6.6301 -22.10982,10.87625 -41.16,10.87625c-19.05018,0 -32.59453,-4.24618 -41.16875,-10.87625c-8.57423,-6.63007 -12.59125,-15.57786 -12.59125,-26.7575c0,-6.56188 2.36955,-13.78052 6.74625,-19.74875l1.3125,-1.785l-0.63,-2.12625c-1.03814,-3.52968 -2.31065,-9.24787 -2.56375,-14.41125c-0.21052,-4.29463 0.80592,-7.00912 1.8375,-8.82875zM39.80375,116.57625c3.16598,0.04044 6.79479,0.21133 10.43,0.39375c0.34733,1.39685 0.74337,2.77098 1.225,4.1125c-14.81695,0.31247 -25.90156,1.80244 -32.73375,3.08c-0.28887,-2.24157 -0.51896,-4.50161 -0.6475,-6.79c5.04918,-0.47917 12.16697,-0.91834 21.72625,-0.79625zM184.19625,116.64625c9.55267,-0.1213 16.66781,0.31829 21.7175,0.79625c-0.12838,2.25561 -0.35456,4.48367 -0.63875,6.69375c-7.07635,-1.29819 -18.46046,-2.78789 -33.66125,-3.0275c0.47176,-1.315 0.86458,-2.66553 1.2075,-4.03375c4.01013,-0.21495 7.9224,-0.3849 11.375,-0.42875zM53.36625,125.5275c2.6734,5.35717 6.49334,10.14043 11.54125,14.04375c6.90164,5.33673 15.87417,9.06546 26.8275,11.06c-1.43299,1.47236 -2.7363,3.08918 -3.89375,4.795l-0.27125,-0.23625c0.02464,-0.02822 -2.22712,1.09873 -5.59125,1.4c-3.36413,0.30128 -7.51391,0.21 -11.19125,0.21c-5.488,0 -7.90528,-2.59298 -11.76875,-7.315c-2.1394,-2.88345 -4.74758,-5.21856 -7.28,-6.99125c-2.59306,-1.81514 -4.80511,-3.09627 -7.5425,-3.5525l-0.3675,-0.06125h-0.37625c-2.09067,0 -4.11369,0.15138 -6.0025,2.31c-0.9444,1.07932 -1.59532,3.07747 -1.1725,4.76875c0.42282,1.69128 1.49274,2.73057 2.45,3.36875c6.12292,4.08195 7.20502,12.16087 11.0425,19.34625c3.58366,7.14078 11.31777,10.52625 19.22375,10.52625h11.64625v21.51625c-31.50421,-11.12025 -55.26224,-38.51958 -61.2325,-72.12625c6.85844,-1.2918 18.34339,-2.84488 33.95875,-3.0625zM169.715,125.5625c15.96101,0.13662 27.76811,1.68769 34.88625,3.00125c-5.96232,33.61899 -29.72861,61.02927 -61.24125,72.1525v-23.31c0,-7.09886 -2.3312,-14.9269 -6.3875,-21.455c-1.23154,-1.98201 -2.68027,-3.85643 -4.29625,-5.53875c10.37218,-2.04906 18.89274,-5.71378 25.52375,-10.84125c5.03697,-3.89487 8.84839,-8.66375 11.515,-14.00875zM106.1725,152.76625h12.5475c3.64144,0 7.5283,2.9021 10.64,7.91c3.1117,5.0079 5.04,11.73286 5.04,16.73v25.97875c-7.17961,1.75077 -14.67742,2.695 -22.4,2.695c-7.72258,0 -15.22039,-0.94423 -22.4,-2.695v-25.97875c0,-4.88652 2.09587,-11.59559 5.41625,-16.625c3.32038,-5.0294 7.51481,-8.015 11.15625,-8.015zM55.1425,158.06c3.87867,4.02308 8.57441,7.7 15.645,7.7c3.49067,0 7.84763,0.12577 11.9875,-0.245c0.01472,-0.00132 0.02903,-0.00743 0.04375,-0.00875c-0.54543,1.56801 -0.95238,3.14572 -1.295,4.73375h-12.53c-5.52534,0 -9.4287,-1.99615 -11.22625,-5.59125l-0.035,-0.06125l-0.02625,-0.0525c-0.73652,-1.36806 -1.70336,-4.10355 -2.56375,-6.475z"></path></g></g></svg>