<svg xmlns="http://www.w3.org/2000/svg" x="0px" y="0px"
width="64" height="64"
viewBox="0 0 224 224"
style=" fill:#000000;"><g fill="none" fill-rule="nonzero" stroke="none" stroke-width="1" stroke-linecap="butt" stroke-linejoin="miter" stroke-miterlimit="10" stroke-dasharray="" stroke-dashoffset="0" font-family="none" font-weight="none" font-size="none" text-anchor="none" style="mix-blend-mode: normal"><path d="M0,224v-224h224v224z" fill="none"></path><g fill="#ffffff"><g id="surface1"><path d="M17.5,35c-5.7832,0 -10.5,4.7168 -10.5,10.5v126c0,5.7832 4.7168,10.5 10.5,10.5h189c5.7832,0 10.5,-4.7168 10.5,-10.5v-126c0,-5.7832 -4.7168,-10.5 -10.5,-10.5zM17.5,42h189c1.92773,0 3.5,1.57227 3.5,3.5v1.70898l-93.89844,68.00391c-2.44727,1.77734 -5.75586,1.77734 -8.20312,0l-93.89844,-68.00391v-1.70898c0,-1.92773 1.57227,-3.5 3.5,-3.5zM14,55.84961l89.79688,65.02344c2.44727,1.77735 5.33203,2.66602 8.20313,2.66602c2.8711,0 5.75586,-0.88867 8.20313,-2.66602l89.79688,-65.02344v88.41602l-57.85937,-35.25977c-1.6543,-1.01172 -3.81445,-0.47851 -4.8125,1.17578c-0.99805,1.6543 -0.47852,3.80078 1.16211,4.8125l61.50977,37.47461v19.03125c0,1.92773 -1.57227,3.5 -3.5,3.5h-189c-1.92773,0 -3.5,-1.57227 -3.5,-3.5v-19.03125l61.50977,-37.47461c1.64063,-1.01172 2.17383,-3.17187 1.16211,-4.8125c-1.01172,-1.6543 -3.1582,-2.1875 -4.8125,-1.17578l-57.85937,35.25977zM24.5,154c-1.92773,0 -3.5,1.5586 -3.5,3.5v7c0,1.94141 1.57227,3.5 3.5,3.5c1.92773,0 3.5,-1.55859 3.5,-3.5v-7c0,-1.9414 -1.57227,-3.5 -3.5,-3.5zM42,154c-1.92773,0 -3.5,1.5586 -3.5,3.5v7c0,1.94141 1.57227,3.5 3.5,3.5c1.92773,0 3.5,-1.55859 3.5,-3.5v-7c0,-1.9414 -1.57227,-3.5 -3.5,-3.5zM59.5,154c-1.92773,0 -3.5,1.5586 -3.5,3.5v7c0,1.94141 1.57227,3.5 3.5,3.5c1.92773,0 3.5,-1.55859 3.5,-3.5v-7c0,-1.9414 -1.57227,-3.5 -3.5,-3.5zM77,154c-1.92773,0 -3.5,1.5586 -3.5,3.5v7c0,1.94141 1.57227,3.5 3.5,3.5c1.92773,0 3.5,-1.55859 3.5,-3.5v-7c0,-1.9414 -1.57227,-3.5 -3.5,-3.5zM94.5,154c-1.92773,0 -3.5,1.5586 -3.5,3.5v7c0,1.94141 1.57227,3.5 3.5,3.5c1.92773,0 3.5,-1.55859 3.5,-3.5v-7c0,-1.9414 -1.57227,-3.5 -3.5,-3.5zM112,154c-1.92773,0 -3.5,1.5586 -3.5,3.5v7c0,1.94141 1.57227,3.5 3.5,3.5c1.92773,0 3.5,-1.55859 3.5,-3.5v-7c0,-1.9414 -1.57227,-3.5 -3.5,-3.5zM129.5,154c-1.92773,0 -3.5,1.5586 -3.5,3.5v7c0,1.94141 1.57227,3.5 3.5,3.5c1.92773,0 3.5,-1.55859 3.5,-3.5v-7c0,-1.9414 -1.57227,-3.5 -3.5,-3.5zM147,154c-1.92773,0 -3.5,1.5586 -3.5,3.5v7c0,1.94141 1.57227,3.5 3.5,3.5c1.92773,0 3.5,-1.55859 3.5,-3.5v-7c0,-1.9414 -1.57227,-3.5 -3.5,-3.5zM164.5,154c-1.92773,0 -3.5,1.5586 -3.5,3.5v7c0,1.94141 1.57227,3.5 3.5,3.5c1.92773,0 3.5,-1.55859 3.5,-3.5v-7c0,-1.9414 -1.57227,-3.5 -3.5,-3.5zM182,154c-1.92773,0 -3.5,1.5586 -3.5,3.5v7c0,1.94141 1.57227,3.5 3.5,3.5c1.92773,0 3.5,-1.55859 3.5,-3.5v-7c0,-1.9414 -1.57227,-3.5 -3.5,-3.5zM199.5,154c-1.92773,0 -3.5,1.5586 -3.5,3.5v7c0,1.94141 1.57227,3.5 3.5,3.5c1.92773,0 3.5,-1.55859 3.5,-3.5v-7c0,-1.9414 -1.57227,-3.5 -3.5,-3.5z"></path></g></g></g></svg>