<svg xmlns="http://www.w3.org/2000/svg" x="0px" y="0px"
width="50" height="50"
viewBox="0 0 224 224"
style=" fill:#000000;"><g fill="none" fill-rule="nonzero" stroke="none" stroke-width="1" stroke-linecap="butt" stroke-linejoin="miter" stroke-miterlimit="10" stroke-dasharray="" stroke-dashoffset="0" font-family="none" font-weight="none" font-size="none" text-anchor="none" style="mix-blend-mode: normal"><path d="M0,224v-224h224v224z" fill="none"></path><g fill="#ffffff"><g id="surface1"><path d="M53.0425,13.3875c-3.4475,-0.28 -7.28,0.7175 -10.815,3.2025c-3.115,2.17 -9.835,7.5075 -16.1175,13.545c-3.1325,3.01 -6.125,6.1425 -8.435,9.2225c-2.3275,3.08 -4.3575,5.8975 -4.235,9.9925c0.1225,3.675 0.49,14.5425 8.3125,31.2025c7.8225,16.6425 22.995,39.48 52.5875,69.09c29.61,29.61 52.4475,44.7825 69.09,52.605c16.6425,7.8225 27.5275,8.19 31.2025,8.3125c4.0775,0.1225 6.895,-1.9075 9.975,-4.235c3.08,-2.3275 6.2125,-5.3025 9.2225,-8.435c6.02,-6.2825 11.3575,-13.0025 13.5275,-16.1175c4.9525,-7.0525 4.13,-15.3825 -1.3825,-19.25c-3.465,-2.4325 -35.3325,-23.6425 -40.1275,-26.5825c-4.865,-2.975 -10.465,-1.6275 -15.47,1.015c-3.9375,2.0825 -14.595,8.19 -17.64,9.94c-2.2925,-1.4525 -10.99,-7.245 -29.6975,-25.9525c-18.725,-18.7075 -24.5,-27.405 -25.9525,-29.6975c1.75,-3.045 7.84,-13.65 9.94,-17.6575c2.625,-4.9875 4.095,-10.64 0.9625,-15.54c-1.3125,-2.0825 -7.28,-11.165 -13.3,-20.2825c-6.0375,-9.1175 -11.76,-17.7625 -13.2475,-19.8275v-0.0175c-1.9425,-2.6775 -4.97,-4.2525 -8.4,-4.5325zM112,22.4v8.96c44.4675,0 80.64,36.1725 80.64,80.64h8.96c0,-49.4025 -40.1975,-89.6 -89.6,-89.6zM52.22,22.54c1.225,0.1575 1.96,0.6475 1.96,0.6475c0.7175,0.9975 7,10.4125 13.02,19.5125c6.02,9.1175 12.1625,18.4625 13.23,20.16c0.175,0.2625 0.42,3.2375 -1.33,6.545v0.0175c-1.9775,3.7625 -11.2,19.88 -11.2,19.88l-1.2775,2.2575l1.3125,2.24c0,0 6.8775,11.6025 28.7525,33.4775c21.8925,21.875 33.495,28.77 33.495,28.77l2.24,1.3125l2.2575,-1.2775c0,0 16.0825,-9.205 19.88,-11.2c3.3075,-1.7325 6.2825,-1.505 6.6325,-1.295c3.0975,1.9075 37.52,24.78 39.6375,26.2675c0.07,0.0525 1.9425,2.8875 -0.7875,6.7725h-0.0175c-1.645,2.3625 -7.035,9.205 -12.6525,15.05c-2.8175,2.9225 -5.705,5.6525 -8.155,7.49c-2.45,1.8375 -4.6375,2.415 -4.2875,2.4325c-3.815,-0.1225 -12.2325,-0.21 -27.685,-7.4725c-15.4525,-7.245 -37.5025,-21.7525 -66.57,-50.8375c-29.05,-29.05 -43.5575,-51.1 -50.82,-66.57c-7.245,-15.4525 -7.3325,-23.87 -7.455,-27.6675c0.0175,0.35 0.595,-1.855 2.4325,-4.305c1.8375,-2.45 4.55,-5.355 7.4725,-8.1725c5.8625,-5.6175 12.6875,-11.0075 15.05,-12.6525v0.0175c1.9425,-1.365 3.64,-1.54 4.865,-1.4zM112,47.2325v8.96c30.7825,0 55.8075,25.0425 55.8075,55.8075h8.96c0,-35.7175 -29.05,-64.7675 -64.7675,-64.7675zM112,71.68v8.96c17.29,0 31.36,14.07 31.36,31.36h8.96c0,-22.2425 -18.095,-40.32 -40.32,-40.32z"></path></g></g></g></svg>