<svg xmlns="http://www.w3.org/2000/svg" x="0px" y="0px"
width="50" height="50"
viewBox="0 0 224 224"
style=" fill:#000000;"><g fill="none" fill-rule="nonzero" stroke="none" stroke-width="1" stroke-linecap="butt" stroke-linejoin="miter" stroke-miterlimit="10" stroke-dasharray="" stroke-dashoffset="0" font-family="none" font-weight="none" font-size="none" text-anchor="none" style="mix-blend-mode: normal"><path d="M0,224v-224h224v224z" fill="none"></path><g fill="#ffffff"><g id="surface1"><path d="M44.8,8.96c-7.3675,0 -13.44,6.0725 -13.44,13.44v161.28c0,7.3675 6.0725,13.44 13.44,13.44h13.44v20.72l22.4,-11.2l22.4,11.2v-20.72h76.16c7.3675,0 13.44,-6.0725 13.44,-13.44v-161.28c0,-7.3675 -6.0725,-13.44 -13.44,-13.44zM44.8,17.92h134.4c2.5375,0 4.48,1.9425 4.48,4.48v129.92h-143.36v-129.92c0,-2.5375 1.9425,-4.48 4.48,-4.48zM58.24,31.36v26.88h26.88v-26.88zM67.2,40.32h8.96v8.96h-8.96zM58.24,71.68v26.88h26.88v-26.88zM67.2,80.64h8.96v8.96h-8.96zM58.24,112v26.88h26.88v-26.88zM67.2,120.96h8.96v8.96h-8.96zM40.32,161.28h143.36v22.4c0,2.5375 -1.9425,4.48 -4.48,4.48h-76.16v-17.92h-44.8v17.92h-13.44c-2.5375,0 -4.48,-1.9425 -4.48,-4.48zM67.2,179.2h26.88v24.08l-13.44,-6.72l-13.44,6.72z"></path></g></g></g></svg>