<svg xmlns="http://www.w3.org/2000/svg" x="0px" y="0px"
width="50" height="50"
viewBox="0 0 224 224"
style=" fill:#000000;"><g fill="none" fill-rule="nonzero" stroke="none" stroke-width="1" stroke-linecap="butt" stroke-linejoin="miter" stroke-miterlimit="10" stroke-dasharray="" stroke-dashoffset="0" font-family="none" font-weight="none" font-size="none" text-anchor="none" style="mix-blend-mode: normal"><path d="M0,224v-224h224v224z" fill="none"></path><g fill="#ffffff"><g id="surface1"><path d="M107.52,8.96c-54.3725,0 -98.56,44.1875 -98.56,98.56c0,54.3725 44.1875,98.56 98.56,98.56c9.2225,0 18.235,-1.33 26.88,-3.78v-17.29c-6.7025,6.475 -14.2975,10.6225 -22.4,11.76v-35.49h22.4v-8.96h-22.4v-40.32h22.4v-8.96h-22.4v-40.32h41.9825c4.0075,11.5675 6.545,24.7275 7.105,38.7975l4.6725,4.3925l4.4275,4.13l2.0825,1.96h24.6925c-0.35,6.8425 -1.435,13.5625 -3.29,20.0725l7.245,6.79c3.3775,-10.0275 5.1625,-20.5625 5.1625,-31.3425c0,-54.3725 -44.1875,-98.56 -98.56,-98.56zM103.04,18.2875v35.4725h-38.3425c1.68,-3.6925 3.465,-7.21 5.4425,-10.395c8.9425,-14.4375 20.475,-23.3275 32.9,-25.0775zM112,18.2875c15.6975,2.17 29.47,15.61 38.43,35.4725h-38.43zM141.12,24.43c15.225,6.16 28.315,16.3975 38.0275,29.33h-19.1275c-4.9,-11.7775 -11.3575,-21.77 -18.9,-29.33zM73.5875,24.605c-4.0425,4.0775 -7.7875,8.75 -11.06,14.035c-2.87,4.6375 -5.425,9.7125 -7.6475,15.12h-18.9525c9.6425,-12.8275 22.5925,-22.995 37.66,-29.155zM29.9775,62.72h21.63c-3.9375,12.215 -6.265,25.865 -6.6675,40.32h-26.915c0.735,-14.665 5.0225,-28.35 11.9525,-40.32zM61.0925,62.72h41.9475v40.32h-49.14c0.4375,-14.665 2.9925,-28.385 7.1925,-40.32zM163.31,62.72h21.8225c6.9125,11.97 11.1475,25.6725 11.865,40.32h-26.8975c-0.42,-14.4725 -2.8,-28.1225 -6.79,-40.32zM18.025,112h26.915c0.4025,14.455 2.73,28.105 6.6675,40.32h-21.63c-6.93,-11.97 -11.2175,-25.655 -11.9525,-40.32zM53.9,112h49.14v40.32h-41.9475c-4.2,-11.935 -6.755,-25.655 -7.1925,-40.32zM152.11,112c-2.38,0.1225 -4.27,2.0825 -4.27,4.48v86.24c0,1.82 1.085,3.4475 2.765,4.13c1.68,0.7 3.605,0.315 4.8825,-0.9625l13.4925,-13.51l11.2525,24.535c1.0325,2.24 3.6925,3.22 5.95,2.1875l17.29,-7.91c2.24,-1.0325 3.22,-3.6925 2.1875,-5.95l-11.6725,-25.48h21.0525c1.8375,0 3.5,-1.12 4.165,-2.835c0.6825,-1.715 0.245,-3.6575 -1.1025,-4.9175l-62.72,-58.8c-0.8925,-0.8225 -2.065,-1.26 -3.2725,-1.2075zM156.8,126.8225l46.9,43.9775h-16.1c-0.7,0 -1.3825,0.1575 -2.0125,0.4725l-0.4725,0.245c-2.1525,1.085 -3.08,3.675 -2.065,5.8625l12.6,27.51l-9.1525,4.2l-12.0575,-26.3025c-0.595,-1.33 -1.8375,-2.275 -3.2725,-2.5375c-1.4525,-0.2625 -2.9225,0.21 -3.955,1.26l-10.4125,10.395zM35.9275,161.28h18.9525c2.2225,5.4075 4.7775,10.4825 7.6475,15.12c3.2725,5.285 7.0175,9.9575 11.06,14.035c-15.0675,-6.16 -28.0175,-16.3275 -37.66,-29.155zM64.6975,161.28h38.3425v35.4725c-12.425,-1.75 -23.9575,-10.64 -32.9,-25.06c-1.9775,-3.2025 -3.7625,-6.72 -5.4425,-10.4125z"></path></g></g></g></svg>